<?xml version="1.0" standalone="no"?>
<!DOCTYPE svg PUBLIC "-//W3C//DTD SVG 20010904//EN"
 "http://www.w3.org/TR/2001/REC-SVG-20010904/DTD/svg10.dtd">
<svg version="1.0" xmlns="http://www.w3.org/2000/svg"
 width="746.000000pt" height="434.000000pt" viewBox="0 0 746.000000 434.000000"
 preserveAspectRatio="xMidYMid meet">

<g transform="translate(0.000000,434.000000) scale(0.100000,-0.100000)"
fill="#000000" stroke="none">
<path d="M2234 3894 c-50 -138 -101 -228 -323 -571 -36 -56 -96 -148 -133
-205 -37 -56 -92 -139 -123 -183 -31 -44 -68 -98 -82 -120 -164 -255 -159
-249 -255 -260 -29 -4 -100 -15 -158 -25 -58 -10 -143 -24 -190 -30 -47 -7
-148 -25 -225 -40 -256 -52 -353 -70 -372 -70 -11 0 -28 -7 -39 -15 -18 -15
-18 -16 20 -50 22 -19 44 -35 51 -35 6 0 29 -8 51 -19 21 -10 89 -35 149 -55
196 -65 349 -113 407 -130 32 -10 58 -19 58 -21 0 -6 -66 -114 -117 -190 -22
-33 -42 -67 -45 -76 -3 -8 -31 -52 -62 -97 -31 -46 -56 -87 -56 -92 0 -4 -10
-21 -23 -37 -13 -15 -38 -53 -56 -83 -17 -30 -49 -82 -71 -115 -41 -64 -119
-197 -160 -274 -14 -25 -38 -68 -54 -95 -20 -34 -25 -51 -17 -59 7 -7 32 12
83 68 114 122 334 288 493 370 28 15 92 48 144 75 82 43 210 100 361 160 25
10 83 34 130 53 47 19 117 47 155 60 39 14 103 39 144 56 78 33 113 38 158 20
15 -6 64 -20 108 -29 44 -10 98 -23 120 -28 22 -6 73 -15 113 -22 39 -6 72
-15 72 -20 0 -4 -53 -47 -117 -96 -126 -95 -377 -332 -424 -401 -22 -32 -38
-44 -64 -49 -20 -3 -38 -10 -41 -15 -3 -5 -44 -9 -92 -9 -205 -1 -592 -45
-707 -80 -121 -36 -182 -71 -191 -107 -16 -62 43 -70 571 -77 1769 -23 3637
-56 3730 -66 50 -5 131 -14 180 -20 50 -5 144 -11 210 -12 108 -3 120 -1 119
14 -2 16 44 17 717 11 666 -6 719 -5 725 11 8 20 -9 42 -56 70 -54 34 -162 61
-380 96 -74 12 -195 32 -269 45 -74 13 -138 22 -143 19 -27 -17 17 -27 362
-84 200 -34 222 -38 280 -54 105 -29 125 -36 150 -56 25 -20 24 -20 -415 -19
-742 1 -1235 14 -1434 38 -95 12 -177 24 -182 27 -5 3 -62 11 -126 19 -65 7
-176 21 -248 30 -71 9 -168 20 -215 26 -47 5 -106 14 -131 19 -25 5 -128 16
-230 25 -101 8 -215 20 -254 26 -38 7 -117 15 -175 19 -58 4 -193 15 -300 24
-107 9 -321 25 -475 35 -215 14 -255 19 -175 20 129 1 616 -16 835 -30 88 -5
282 -16 430 -24 149 -8 326 -19 395 -25 466 -37 859 -47 867 -23 8 23 -173 93
-313 122 -52 11 -60 16 -60 34 1 22 -1 22 -279 28 -154 4 -404 14 -555 23
-171 10 -429 16 -683 16 l-408 0 6 23 c18 61 89 130 190 184 151 80 166 82
349 44 93 -19 153 -36 158 -45 6 -10 37 -16 105 -21 84 -6 422 -54 491 -70 17
-4 22 -12 22 -39 0 -54 18 -61 113 -47 45 7 94 20 109 29 24 14 36 14 135 -3
59 -10 139 -21 176 -25 55 -6 74 -13 96 -35 28 -26 104 -55 147 -55 13 0 38 9
56 20 37 22 96 26 179 10 30 -6 101 -15 158 -20 57 -5 109 -14 115 -19 8 -7
16 -7 22 -1 6 6 44 4 104 -4 52 -8 163 -20 245 -26 83 -6 231 -17 330 -25 202
-15 814 -39 860 -34 17 2 30 10 30 17 0 11 -42 14 -200 17 -280 6 -806 31
-834 41 -8 2 11 20 47 43 33 22 62 44 66 49 13 21 -16 24 -37 4 -38 -34 -119
-73 -146 -70 -45 5 -51 36 -59 300 -5 160 -12 251 -20 265 -13 24 -52 39 -76
30 -8 -3 -35 -50 -61 -104 -25 -54 -57 -118 -69 -143 -65 -125 -110 -207 -121
-220 -7 -8 -19 -27 -26 -42 -12 -23 -14 -5 -16 160 -3 266 -24 362 -76 362
-43 0 -70 -39 -155 -221 -27 -59 -68 -133 -90 -166 -50 -73 -138 -155 -161
-149 -9 3 -52 10 -96 16 -44 6 -87 13 -97 16 -28 8 -38 62 -38 209 l0 142 39
6 c21 2 59 17 85 32 43 25 46 30 46 68 0 26 -11 61 -28 92 -23 42 -32 50 -59
53 -18 2 -41 -2 -53 -8 -34 -18 -60 -83 -60 -149 l0 -59 -37 8 c-21 5 -66 11
-100 15 l-63 7 0 33 c0 21 -9 45 -26 65 -53 62 -124 78 -163 36 -19 -20 -21
-28 -11 -46 13 -24 105 -86 144 -96 24 -6 26 -10 26 -58 0 -81 -41 -195 -94
-260 l-23 -30 -102 13 -101 13 6 172 c6 165 7 174 39 251 68 161 107 360 103
515 l-3 105 -47 3 c-29 2 -59 -3 -78 -13 -72 -37 -130 -170 -130 -299 0 -61 6
-85 37 -157 45 -104 56 -204 28 -262 -42 -89 -188 -187 -329 -223 -63 -16 -72
-16 -136 0 -37 9 -78 16 -90 16 -23 0 -23 2 -17 88 7 95 38 252 63 319 16 41
12 86 -5 67 -5 -5 -32 -55 -62 -112 -69 -134 -130 -194 -256 -247 -92 -39
-146 -43 -215 -16 -26 10 -28 14 -28 68 0 101 26 187 96 329 72 146 76 191 11
105 -39 -50 -144 -147 -152 -139 -3 2 11 35 30 72 39 76 53 132 37 148 -11 11
-89 -36 -182 -111 -25 -20 -52 -40 -61 -46 -23 -14 -93 -65 -139 -100 -62 -47
-150 -112 -207 -154 l-52 -38 -58 13 c-71 16 -184 40 -280 59 -40 7 -83 20
-97 27 l-25 13 52 27 c29 15 95 46 147 69 52 23 223 108 380 188 157 79 321
162 365 184 44 21 98 51 120 66 22 15 58 35 80 45 22 11 54 30 71 43 17 12 34
23 38 23 3 0 47 28 96 61 90 61 159 128 193 188 16 27 16 32 3 37 -8 3 -86 -1
-173 -10 -87 -9 -266 -23 -398 -31 -515 -32 -571 -36 -593 -45 -13 -6 -49 -10
-81 -10 -58 0 -271 -21 -406 -40 -38 -6 -108 -15 -155 -20 -47 -6 -130 -17
-185 -24 -55 -8 -118 -16 -141 -19 l-41 -5 142 212 c287 426 404 604 480 731
42 70 79 130 122 200 19 30 49 95 64 137 10 29 10 41 1 50 -9 9 -13 7 -18 -8z
m1346 -1152 c0 -4 -23 -34 -51 -65 -46 -52 -149 -129 -224 -167 -16 -8 -49
-27 -72 -43 -24 -15 -45 -27 -48 -27 -3 0 -22 -11 -43 -23 -64 -40 -733 -382
-869 -444 -26 -12 -92 -43 -146 -68 -54 -25 -105 -46 -115 -48 -9 -1 -78 13
-152 31 -74 17 -171 41 -215 51 -44 10 -111 29 -150 41 -38 12 -92 25 -120 30
-27 5 -83 20 -123 34 -41 14 -79 26 -85 26 -7 0 -18 4 -25 9 -18 11 4 53 97
186 38 55 93 139 122 187 l53 87 55 6 c31 4 103 13 161 21 58 9 137 19 175 24
39 5 108 14 155 20 187 24 348 40 413 40 38 0 76 4 85 9 9 5 91 14 182 20 526
35 770 52 845 61 91 11 95 11 95 2z m-2253 -296 c-29 -46 -77 -119 -107 -162
-66 -97 -119 -176 -122 -185 -3 -8 -207 49 -270 76 -21 8 -62 22 -90 30 -70
19 -278 92 -300 105 -10 5 -24 10 -31 10 -8 0 -21 8 -30 18 -16 17 -13 19 61
32 42 7 140 26 217 42 77 15 199 37 270 48 72 12 182 29 245 40 235 40 218 46
157 -54z m3063 -128 c0 -130 -35 -319 -82 -448 -28 -76 -34 -79 -42 -18 -4 29
-23 87 -42 129 -39 87 -45 163 -20 257 30 110 84 171 154 172 l32 0 0 -92z
m-1251 -200 c-9 -33 -55 -126 -90 -185 -22 -35 -75 -68 -184 -114 -38 -17 -79
-34 -90 -39 -36 -16 -139 -47 -180 -54 l-40 -7 33 23 c18 13 61 44 95 70 34
26 78 59 97 73 19 14 61 45 92 70 32 25 61 45 64 45 3 0 25 15 47 33 37 29
159 117 164 117 1 0 -3 -15 -8 -32z m-1894 -100 c50 -16 110 -33 135 -38 25
-5 70 -16 100 -25 60 -18 141 -38 325 -80 66 -15 126 -30 133 -34 12 -7 -34
-28 -198 -91 -79 -30 -174 -68 -250 -100 -25 -10 -76 -31 -115 -45 -64 -24
-299 -133 -335 -155 -8 -5 -37 -21 -65 -36 -151 -81 -286 -180 -428 -314 l-69
-65 33 63 c19 35 39 71 44 80 6 10 28 48 50 85 22 37 54 90 70 116 17 26 39
62 50 80 11 18 33 52 49 74 16 23 43 67 58 97 16 30 38 64 48 75 10 11 33 47
51 80 18 33 56 94 84 137 27 42 58 90 67 107 20 36 17 36 163 -11z m1944 -69
c-40 -80 -69 -196 -69 -276 l0 -65 -27 6 c-16 3 -58 11 -96 17 -37 6 -70 15
-73 20 -3 5 5 27 18 49 70 120 113 186 126 194 8 5 42 32 76 62 34 29 64 53
69 53 4 1 -7 -26 -24 -60z m1779 -114 c31 -65 29 -89 -13 -115 -19 -12 -50
-24 -70 -27 l-35 -6 0 56 c0 89 26 137 75 137 15 0 27 -13 43 -45z m-2024 -77
c-31 -51 -57 -94 -59 -96 -2 -2 -55 7 -120 20 -64 12 -111 24 -103 26 7 2 31
10 53 19 22 8 49 19 60 23 11 4 65 28 120 53 55 25 101 46 102 46 2 1 -23 -41
-53 -91z m1610 58 c34 -31 49 -76 26 -76 -16 0 -70 29 -108 57 -26 20 -31 28
-21 39 20 25 65 16 103 -20z m-919 -121 c-8 -48 -15 -110 -15 -137 l0 -49 -37
7 c-80 13 -188 36 -196 41 -14 8 3 22 74 59 66 35 179 141 179 167 0 6 2 8 5
5 3 -3 -1 -45 -10 -93z m1875 48 c16 -56 34 -409 23 -463 l-9 -45 -70 2 c-38
2 -124 10 -190 20 l-122 17 43 40 c74 71 159 213 229 381 19 45 53 85 72 85 7
0 18 -17 24 -37z m397 -3 c9 -17 13 -78 14 -185 1 -225 11 -330 35 -356 19
-22 19 -22 -6 -16 -14 3 -65 8 -115 12 -82 5 -256 25 -263 30 -1 1 15 29 37
61 45 69 85 141 153 279 98 197 103 205 118 203 8 -2 20 -14 27 -28z m-3187
-75 c74 -15 139 -31 143 -35 4 -4 -2 -20 -15 -36 -13 -16 -45 -67 -72 -114
-26 -47 -69 -118 -95 -157 l-46 -73 -62 0 c-60 0 -62 1 -68 30 -4 17 1 83 10
149 13 90 15 135 8 190 -5 39 -7 74 -4 77 8 7 37 3 201 -31z m2063 4 l37 -10
0 -149 c0 -82 5 -161 10 -176 l10 -26 -47 6 c-155 21 -269 40 -275 45 -4 3 6
26 21 51 46 75 81 173 81 230 l0 51 63 -6 c34 -4 79 -11 100 -16z m-538 -157
c-6 -103 -9 -113 -25 -109 -10 3 -86 15 -168 28 l-149 23 64 22 c83 29 144 69
218 143 59 58 60 59 63 33 2 -15 1 -78 -3 -140z m-1798 76 c-10 -59 -3 -238
11 -265 6 -12 5 -31 -3 -53 -12 -35 -12 -35 -86 -41 -167 -14 -317 -31 -358
-40 -24 -5 -46 -8 -48 -5 -5 5 132 159 198 223 48 46 280 232 290 233 4 0 2
-24 -4 -52z m47 -89 c-8 -103 -24 -124 -24 -33 0 39 3 93 7 120 6 47 7 48 15
19 5 -16 6 -64 2 -106z m502 106 c44 -9 89 -18 100 -20 12 -3 24 -14 27 -25 4
-15 14 -20 39 -20 l33 -1 -30 -13 c-53 -23 -171 -103 -208 -141 -20 -20 -44
-56 -54 -80 l-17 -43 -106 -4 c-58 -3 -106 -4 -107 -3 -1 0 17 30 40 66 24 35
68 107 97 159 53 93 86 140 101 140 4 0 42 -7 85 -15z m1428 -266 c5 -5 -113
-29 -143 -29 -6 0 -11 13 -11 28 l0 28 74 -10 c41 -6 77 -14 80 -17z m634 -93
c2 -3 -7 -8 -21 -11 -28 -7 -137 20 -137 34 0 8 148 -14 158 -23z m-2161 -35
c12 -18 61 -33 153 -45 19 -2 -23 -3 -95 0 -71 2 -177 4 -234 4 l-103 0 14 23
c16 23 61 32 193 35 50 2 62 -1 72 -17z m1173 -1 c221 -12 583 -40 588 -45 23
-23 -908 -16 -1258 9 -331 23 -432 33 -460 46 -32 13 851 6 1130 -10z m-1467
-15 c-15 -20 -26 -24 -70 -25 -46 0 -53 3 -53 20 0 16 8 20 58 23 31 2 63 4
70 5 9 1 7 -6 -5 -23z m-156 -21 c-6 -6 -403 -18 -397 -11 3 2 61 10 130 17
249 25 265 26 268 12 2 -8 2 -16 -1 -18z m851 -21 c-16 -2 -40 -2 -55 0 -16 2
-3 4 27 4 30 0 43 -2 28 -4z m1600 -23 c97 -21 228 -62 239 -75 9 -9 -252 -1
-487 14 -85 6 -258 18 -385 26 -126 9 -255 17 -285 18 -30 2 91 4 270 6 206 1
354 7 405 15 115 19 145 18 243 -4z m-2470 3 c-10 -2 -28 -2 -40 0 -13 2 -5 4
17 4 22 1 32 -1 23 -4z m115 0 c-13 -2 -35 -2 -50 0 -16 2 -5 4 22 4 28 0 40
-2 28 -4z m-668 -43 c-10 -32 2 -40 39 -25 47 20 214 35 381 35 l143 0 -1 -66
c-1 -44 2 -68 10 -71 6 -2 33 25 60 61 37 50 54 65 73 65 86 1 898 -67 1070
-90 196 -26 303 -39 395 -49 55 -6 161 -20 235 -30 74 -10 198 -26 275 -35 77
-9 147 -18 155 -20 28 -8 -1964 17 -2815 35 -264 6 -570 10 -680 10 -179 0
-319 10 -332 24 -2 2 0 13 6 24 15 27 123 66 251 91 58 11 119 22 135 26 56
12 339 32 473 34 129 1 133 0 127 -19z m624 -35 c-25 -42 -39 -52 -39 -28 0
42 12 63 36 63 l23 0 -20 -35z m1219 -32 c-15 -2 -42 -2 -60 0 -18 2 -6 4 27
4 33 0 48 -2 33 -4z m75 -10 c-7 -2 -19 -2 -25 0 -7 3 -2 5 12 5 14 0 19 -2
13 -5z m64 -9 c-3 -3 -12 -4 -19 -1 -8 3 -5 6 6 6 11 1 17 -2 13 -5z m111 -11
c-15 -2 -42 -2 -60 0 -18 2 -6 4 27 4 33 0 48 -2 33 -4z m217 -18 c66 -8 152
-20 190 -25 39 -6 117 -15 175 -20 58 -5 148 -17 200 -25 52 -8 133 -20 180
-25 99 -12 170 -27 130 -29 -28 -1 -214 21 -365 44 -88 13 -205 28 -515 66
-47 5 -107 14 -135 18 -92 15 9 12 140 -4z m1212 -161 c-3 -3 -12 -4 -19 -1
-8 3 -5 6 6 6 11 1 17 -2 13 -5z"/>
</g>
</svg>
